<svg width="111" height="118" viewBox="0 0 111 118" fill="none" xmlns="http://www.w3.org/2000/svg">
<path d="M5.056 90V1.936H24.512V45.136C24.896 43.9413 25.8773 42.64 27.456 41.232C29.0773 39.7813 31.1893 38.544 33.792 37.52C36.4373 36.4533 39.424 35.92 42.752 35.92C47.872 35.92 52.3093 37.1787 56.064 39.696C59.8187 42.2133 62.72 45.584 64.768 49.808C66.816 53.9893 67.84 58.64 67.84 63.76C67.84 68.88 66.816 73.552 64.768 77.776C62.72 81.9573 59.8187 85.3067 56.064 87.824C52.3093 90.2987 47.872 91.536 42.752 91.536C39.936 91.536 37.2693 91.024 34.752 90C32.2773 89.0187 30.1227 87.76 28.288 86.224C26.496 84.6453 25.1733 83.0667 24.32 81.488V90H5.056ZM48.768 63.76C48.768 61.3707 48.2347 59.2373 47.168 57.36C46.144 55.44 44.7147 53.9467 42.88 52.88C41.088 51.7707 39.0613 51.216 36.8 51.216C34.4533 51.216 32.3413 51.7707 30.464 52.88C28.6293 53.9467 27.1787 55.44 26.112 57.36C25.0453 59.2373 24.512 61.3707 24.512 63.76C24.512 66.1493 25.0453 68.304 26.112 70.224C27.1787 72.1013 28.6293 73.5733 30.464 74.64C32.3413 75.7067 34.4533 76.24 36.8 76.24C39.0613 76.24 41.088 75.7067 42.88 74.64C44.7147 73.5733 46.144 72.1013 47.168 70.224C48.2347 68.304 48.768 66.1493 48.768 63.76ZM89.932 91.536C86.7747 91.536 84.044 90.4053 81.74 88.144C79.4787 85.84 78.348 83.1093 78.348 79.952C78.348 76.7093 79.4787 73.9573 81.74 71.696C84.044 69.392 86.7747 68.24 89.932 68.24C93.1747 68.24 95.9267 69.392 98.188 71.696C100.449 73.9573 101.58 76.7093 101.58 79.952C101.58 83.1093 100.449 85.84 98.188 88.144C95.9267 90.4053 93.1747 91.536 89.932 91.536Z" fill="white"/>
<path d="M36.282 7.578C36.296 7.78333 36.3613 7.96533 36.478 8.124C36.5947 8.28267 36.7557 8.40867 36.961 8.502C37.171 8.59067 37.4183 8.635 37.703 8.635C37.9737 8.635 38.2163 8.607 38.431 8.551C38.6503 8.495 38.8393 8.425 38.998 8.341C39.1613 8.257 39.2873 8.17067 39.376 8.082L40.202 9.398C40.0853 9.524 39.9197 9.64767 39.705 9.769C39.495 9.88567 39.2173 9.98133 38.872 10.056C38.5267 10.1307 38.0903 10.168 37.563 10.168C36.9283 10.168 36.3637 10.049 35.869 9.811C35.3743 9.573 34.9847 9.223 34.7 8.761C34.4153 8.299 34.273 7.73433 34.273 7.067C34.273 6.507 34.3943 6.003 34.637 5.555C34.8843 5.10233 35.2413 4.74533 35.708 4.484C36.1747 4.218 36.737 4.085 37.395 4.085C38.0203 4.085 38.5617 4.19933 39.019 4.428C39.481 4.65667 39.8357 4.99733 40.083 5.45C40.335 5.898 40.461 6.458 40.461 7.13C40.461 7.16733 40.4587 7.242 40.454 7.354C40.454 7.466 40.4493 7.54067 40.44 7.578H36.282ZM38.459 6.465C38.4543 6.31567 38.4147 6.16867 38.34 6.024C38.2653 5.87467 38.1533 5.75333 38.004 5.66C37.8547 5.562 37.6633 5.513 37.43 5.513C37.1967 5.513 36.9983 5.55967 36.835 5.653C36.6763 5.74167 36.555 5.85833 36.471 6.003C36.387 6.14767 36.3403 6.30167 36.331 6.465H38.459ZM44.1367 4.085C44.5147 4.085 44.86 4.11767 45.1727 4.183C45.4853 4.24367 45.7467 4.31367 45.9567 4.393C46.1713 4.47233 46.309 4.53767 46.3697 4.589L45.6767 5.842C45.588 5.77667 45.4223 5.69267 45.1797 5.59C44.9417 5.48733 44.6757 5.436 44.3817 5.436C44.1577 5.436 43.9687 5.471 43.8147 5.541C43.6607 5.60633 43.5837 5.71133 43.5837 5.856C43.5837 6.00067 43.6677 6.11733 43.8357 6.206C44.0083 6.29 44.2557 6.36467 44.5777 6.43C44.8577 6.486 45.1423 6.57467 45.4317 6.696C45.721 6.81733 45.9613 6.997 46.1527 7.235C46.3487 7.46833 46.4467 7.781 46.4467 8.173C46.4467 8.57433 46.3603 8.90567 46.1877 9.167C46.015 9.42833 45.7863 9.63133 45.5017 9.776C45.217 9.92067 44.909 10.021 44.5777 10.077C44.2463 10.1377 43.9243 10.168 43.6117 10.168C43.173 10.168 42.7903 10.1283 42.4637 10.049C42.1417 9.96967 41.8803 9.87867 41.6797 9.776C41.479 9.67333 41.339 9.59167 41.2597 9.531L41.9457 8.131C42.067 8.23367 42.2653 8.35033 42.5407 8.481C42.816 8.607 43.1077 8.67 43.4157 8.67C43.7143 8.67 43.9453 8.62567 44.1087 8.537C44.272 8.44833 44.3537 8.33167 44.3537 8.187C44.3537 8.07033 44.314 7.977 44.2347 7.907C44.1553 7.837 44.0433 7.77633 43.8987 7.725C43.754 7.67367 43.579 7.627 43.3737 7.585C43.187 7.54767 42.9887 7.48933 42.7787 7.41C42.5687 7.33067 42.3703 7.22333 42.1837 7.088C41.997 6.948 41.8453 6.773 41.7287 6.563C41.612 6.353 41.5537 6.09867 41.5537 5.8C41.5537 5.41733 41.6773 5.1 41.9247 4.848C42.172 4.596 42.4917 4.407 42.8837 4.281C43.2757 4.15033 43.6933 4.085 44.1367 4.085ZM46.9906 4.253H47.9706V1.894H50.0776V4.253H51.3656V6.003H50.0776V7.606C50.0776 7.844 50.1126 8.03767 50.1826 8.187C50.2526 8.33167 50.3809 8.404 50.5676 8.404C50.6936 8.404 50.8009 8.376 50.8896 8.32C50.9782 8.264 51.0319 8.22667 51.0506 8.208L51.7786 9.72C51.7459 9.748 51.6432 9.79933 51.4706 9.874C51.3026 9.94867 51.0879 10.0163 50.8266 10.077C50.5652 10.1377 50.2736 10.168 49.9516 10.168C49.3776 10.168 48.9039 10.007 48.5306 9.685C48.1572 9.35833 47.9706 8.85667 47.9706 8.18V6.003H46.9906V4.253ZM37.913 15.37C37.605 15.37 37.332 15.4447 37.094 15.594C36.8607 15.7387 36.6623 15.909 36.499 16.105C36.3403 16.301 36.219 16.4807 36.135 16.644C36.051 16.8027 36.0043 16.896 35.995 16.924L34.203 16.105C34.2123 16.0443 34.2567 15.923 34.336 15.741C34.4153 15.5543 34.5413 15.3397 34.714 15.097C34.8867 14.8543 35.113 14.6187 35.393 14.39C35.6777 14.1613 36.0277 13.9723 36.443 13.823C36.8583 13.669 37.3483 13.592 37.913 13.592C38.5663 13.592 39.1077 13.6853 39.537 13.872C39.971 14.0587 40.3117 14.3037 40.559 14.607C40.811 14.9057 40.9907 15.23 41.098 15.58C41.2053 15.93 41.259 16.266 41.259 16.588C41.259 16.9893 41.1773 17.379 41.014 17.757C40.8553 18.1303 40.6477 18.485 40.391 18.821C40.1343 19.1523 39.859 19.458 39.565 19.738C39.271 20.0133 38.9887 20.256 38.718 20.466C38.452 20.6713 38.2257 20.8347 38.039 20.956C37.8523 21.0773 37.7403 21.152 37.703 21.18H41.182V23H34.553V21.341C34.623 21.2897 34.7817 21.1753 35.029 20.998C35.2763 20.8207 35.5727 20.599 35.918 20.333C36.268 20.067 36.6297 19.7753 37.003 19.458C37.381 19.136 37.731 18.8047 38.053 18.464C38.3797 18.1233 38.6457 17.7897 38.851 17.463C39.0563 17.1363 39.159 16.8353 39.159 16.56C39.159 16.126 39.0493 15.8203 38.83 15.643C38.6153 15.461 38.3097 15.37 37.913 15.37ZM42.2717 18.387C42.2717 17.5843 42.372 16.8843 42.5727 16.287C42.778 15.685 43.0557 15.1857 43.4057 14.789C43.7604 14.3877 44.1617 14.089 44.6097 13.893C45.0624 13.6923 45.536 13.592 46.0307 13.592C46.5254 13.592 46.9967 13.6923 47.4447 13.893C47.8974 14.089 48.2987 14.3877 48.6487 14.789C48.9987 15.1857 49.274 15.685 49.4747 16.287C49.6754 16.8843 49.7757 17.5843 49.7757 18.387C49.7757 19.241 49.6754 19.9713 49.4747 20.578C49.274 21.1847 48.9987 21.6793 48.6487 22.062C48.2987 22.44 47.8974 22.72 47.4447 22.902C46.9967 23.0793 46.5254 23.168 46.0307 23.168C45.536 23.168 45.0624 23.0793 44.6097 22.902C44.1617 22.72 43.7604 22.44 43.4057 22.062C43.0557 21.6793 42.778 21.1847 42.5727 20.578C42.372 19.9713 42.2717 19.241 42.2717 18.387ZM44.3717 18.387C44.3717 19.0543 44.4394 19.605 44.5747 20.039C44.71 20.473 44.9014 20.7973 45.1487 21.012C45.396 21.222 45.69 21.327 46.0307 21.327C46.3714 21.327 46.663 21.222 46.9057 21.012C47.153 20.7973 47.342 20.473 47.4727 20.039C47.608 19.6003 47.6757 19.0497 47.6757 18.387C47.6757 17.7617 47.608 17.2297 47.4727 16.791C47.342 16.3523 47.153 16.0163 46.9057 15.783C46.663 15.5497 46.3714 15.433 46.0307 15.433C45.69 15.433 45.396 15.5497 45.1487 15.783C44.9014 16.0163 44.71 16.3523 44.5747 16.791C44.4394 17.2297 44.3717 17.7617 44.3717 18.387ZM54.1825 15.37C53.8745 15.37 53.6015 15.4447 53.3635 15.594C53.1302 15.7387 52.9319 15.909 52.7685 16.105C52.6099 16.301 52.4885 16.4807 52.4045 16.644C52.3205 16.8027 52.2739 16.896 52.2645 16.924L50.4725 16.105C50.4819 16.0443 50.5262 15.923 50.6055 15.741C50.6849 15.5543 50.8109 15.3397 50.9835 15.097C51.1562 14.8543 51.3825 14.6187 51.6625 14.39C51.9472 14.1613 52.2972 13.9723 52.7125 13.823C53.1279 13.669 53.6179 13.592 54.1825 13.592C54.8359 13.592 55.3772 13.6853 55.8065 13.872C56.2405 14.0587 56.5812 14.3037 56.8285 14.607C57.0805 14.9057 57.2602 15.23 57.3675 15.58C57.4749 15.93 57.5285 16.266 57.5285 16.588C57.5285 16.9893 57.4469 17.379 57.2835 17.757C57.1249 18.1303 56.9172 18.485 56.6605 18.821C56.4039 19.1523 56.1285 19.458 55.8345 19.738C55.5405 20.0133 55.2582 20.256 54.9875 20.466C54.7215 20.6713 54.4952 20.8347 54.3085 20.956C54.1219 21.0773 54.0099 21.152 53.9725 21.18H57.4515V23H50.8225V21.341C50.8925 21.2897 51.0512 21.1753 51.2985 20.998C51.5459 20.8207 51.8422 20.599 52.1875 20.333C52.5375 20.067 52.8992 19.7753 53.2725 19.458C53.6505 19.136 54.0005 18.8047 54.3225 18.464C54.6492 18.1233 54.9152 17.7897 55.1205 17.463C55.3259 17.1363 55.4285 16.8353 55.4285 16.56C55.4285 16.126 55.3189 15.8203 55.0995 15.643C54.8849 15.461 54.5792 15.37 54.1825 15.37ZM58.7092 15.608C58.7606 15.4213 58.8609 15.2113 59.0102 14.978C59.1596 14.7447 59.3626 14.523 59.6192 14.313C59.8806 14.103 60.1979 13.9303 60.5712 13.795C60.9492 13.6597 61.3856 13.592 61.8802 13.592C62.4682 13.592 62.9886 13.7017 63.4412 13.921C63.8986 14.1357 64.2579 14.4367 64.5192 14.824C64.7806 15.2113 64.9112 15.664 64.9112 16.182C64.9112 16.4947 64.8552 16.7817 64.7432 17.043C64.6312 17.2997 64.4866 17.5143 64.3092 17.687C64.1319 17.8597 63.9452 17.9717 63.7492 18.023C63.9779 18.051 64.2066 18.156 64.4352 18.338C64.6686 18.52 64.8646 18.7627 65.0232 19.066C65.1866 19.3693 65.2682 19.7263 65.2682 20.137C65.2682 20.725 65.1189 21.2477 64.8202 21.705C64.5262 22.1577 64.1226 22.5147 63.6092 22.776C63.0959 23.0373 62.5079 23.168 61.8452 23.168C61.1592 23.168 60.5759 23.0467 60.0952 22.804C59.6192 22.5613 59.2389 22.265 58.9542 21.915C58.6742 21.565 58.4876 21.2267 58.3942 20.9L60.3122 19.948C60.3682 20.1487 60.4616 20.3587 60.5922 20.578C60.7276 20.7973 60.9002 20.984 61.1102 21.138C61.3202 21.2873 61.5629 21.362 61.8382 21.362C62.1229 21.362 62.3656 21.306 62.5662 21.194C62.7669 21.082 62.9209 20.9303 63.0282 20.739C63.1402 20.543 63.1962 20.319 63.1962 20.067C63.1962 19.8057 63.1332 19.5887 63.0072 19.416C62.8859 19.2433 62.7226 19.115 62.5172 19.031C62.3119 18.947 62.0856 18.905 61.8382 18.905H61.6562V17.407H61.8942C62.1089 17.407 62.3026 17.365 62.4752 17.281C62.6479 17.1923 62.7832 17.0687 62.8812 16.91C62.9839 16.7467 63.0352 16.5553 63.0352 16.336C63.0352 16.042 62.9349 15.7923 62.7342 15.587C62.5336 15.377 62.2419 15.272 61.8592 15.272C61.6259 15.272 61.4206 15.314 61.2432 15.398C61.0706 15.4773 60.9259 15.58 60.8092 15.706C60.6926 15.8273 60.5992 15.9533 60.5292 16.084C60.4639 16.21 60.4219 16.3197 60.4032 16.413L58.7092 15.608Z" fill="white"/>
</svg>
